<svg xmlns="http://www.w3.org/2000/svg" xmlns:xlink="http://www.w3.org/1999/xlink" fill="#000000" height="800px" width="800px" id="Layer_1" viewBox="0 0 511.999 511.999" xml:space="preserve"><g>	<g>		<path d="M495.922,105.348c-25.008-5.996-50.299-10.914-75.783-14.788c-2.58-7.423-9.198-13.018-17.395-13.965l-74.23-8.574   c-5.93-0.687-11.898,1.197-16.367,5.179c-2.273,2.024-4.043,4.496-5.242,7.221c-7.028-0.194-14.06-0.297-21.094-0.332   l5.983-27.154c1.37-6.208-0.152-12.993-4.135-17.949c-3.984-4.956-9.998-8.129-16.356-8.129h-30.604   c-6.358,0-12.373,3.173-16.356,8.129c-3.983,4.956-5.505,11.596-4.135,17.805l5.983,27.226   c-7.035,0.035-14.067,0.173-21.096,0.368c-1.199-2.725-2.968-5.179-5.242-7.203c-4.468-3.983-10.429-5.86-16.367-5.17   l-74.232,8.578c-8.198,0.947-14.819,6.545-17.398,13.968c-25.485,3.872-50.768,8.794-75.776,14.788   C6.641,107.609,0,116.048,0,125.754v301.495c0,9.706,6.641,18.144,16.078,20.406c25.008,5.996,50.299,10.914,75.783,14.788   c2.58,7.421,9.196,13.018,17.395,13.965l74.23,8.574c0.803,0.092,1.606,0.138,2.407,0.138c5.119,0,10.095-1.875,13.958-5.317   c2.273-2.024,4.043-4.415,5.242-7.14c8.543,0.236,17.092,0.448,25.643,0.448h50.524c8.553,0,17.102-0.21,25.643-0.448   c1.199,2.725,2.969,5.156,5.242,7.181c3.864,3.443,8.84,5.298,13.96,5.298c0.8,0,1.605-0.056,2.409-0.148l74.232-8.579   c8.198-0.947,14.819-6.545,17.398-13.967c25.485-3.872,50.768-8.794,75.776-14.789c9.437-2.262,16.078-10.702,16.078-20.407   V125.754C512,116.048,505.359,107.61,495.922,105.348z M90.929,419.79c-16.787-2.629-32.175-5.705-48.962-9.25V142.464   c16.787-3.546,32.175-6.622,48.962-9.251V419.79z M165.071,428.503c-11.191-0.804-22.383-1.802-32.175-3.001V127.501   c9.792-1.199,20.984-2.196,32.175-3.002V428.503z M304.96,430.656c-8.393,0.215-15.742,0.487-23.699,0.487h-50.524v0   c-7.958,0-15.305-0.271-23.699-0.487V122.346c8.393-0.215,15.742-0.362,23.699-0.362h50.524c7.957,0,15.305,0.148,23.699,0.362   V430.656z M379.104,425.502c-9.792,1.199-20.984,2.196-32.175,3.002V124.499c11.191,0.806,22.383,1.803,32.175,3.002V425.502z    M470.033,410.539c-16.787,3.546-32.175,6.622-48.962,9.25V133.213c16.787,2.629,32.175,5.705,48.962,9.251V410.539z"></path>	</g></g></svg>