<svg xmlns="http://www.w3.org/2000/svg" xmlns:xlink="http://www.w3.org/1999/xlink" fill="#000000" height="800px" width="800px" id="Layer_1" viewBox="0 0 512 512" xml:space="preserve"><g>	<g>		<path d="M340.198,136.533c10.035,0,18.202-8.166,18.202-18.202V86.468c0-10.035-8.166-18.202-18.202-18.202h-15.932V18.202   C324.267,8.166,316.1,0,306.065,0h-100.13c-10.044,0-18.202,8.166-18.202,18.202v50.065h-15.932   c-10.044,0-18.202,8.166-18.202,18.202v31.863c0,10.035,8.158,18.202,18.202,18.202h15.932v238.933h-15.932   c-10.044,0-18.202,8.166-18.202,18.202v31.863c0,10.035,8.158,18.202,18.202,18.202h15.932v50.065   c0,10.035,8.158,18.202,18.202,18.202h100.13c10.035,0,18.202-8.166,18.202-18.202v-50.065h15.932   c10.035,0,18.202-8.166,18.202-18.202v-31.863c0-10.035-8.166-18.202-18.202-18.202h-15.932V136.533H340.198z M340.198,392.533   c0.623,0,1.135,0.512,1.135,1.135v31.863c0,0.623-0.512,1.135-1.135,1.135h-15.932H187.733h-15.932   c-0.631,0-1.135-0.512-1.135-1.135v-31.863c0-0.623,0.503-1.135,1.135-1.135h15.932h136.533H340.198z M187.733,119.467h-15.932   c-0.631,0-1.135-0.512-1.135-1.135V86.468c0-0.623,0.503-1.135,1.135-1.135h15.932h136.533h15.932   c0.623,0,1.135,0.512,1.135,1.135v31.863c0,0.623-0.512,1.135-1.135,1.135h-15.932H187.733z"></path>	</g></g></svg>